<?xml version="1.0" encoding="utf-8"?>
<!-- Generator: Adobe Illustrator 15.1.0, SVG Export Plug-In . SVG Version: 6.00 Build 0)  -->
<!DOCTYPE svg PUBLIC "-//W3C//DTD SVG 1.1//EN" "http://www.w3.org/Graphics/SVG/1.1/DTD/svg11.dtd">
<svg version="1.1" id="Layer_1" xmlns="http://www.w3.org/2000/svg" xmlns:xlink="http://www.w3.org/1999/xlink" x="0px" y="0px"
	 width="144px" height="144px" viewBox="0 0 144 144" enable-background="new 0 0 144 144" xml:space="preserve">
<circle fill="#606060" cx="72" cy="72" r="68.4"/>
<path fill="#080808" d="M72,7.2c-28.212,0-52.201,18.035-61.098,43.2h122.195C124.199,25.235,100.211,7.2,72,7.2z"/>
<path fill="#F88008" d="M72,50.4H10.902C8.513,57.158,7.2,64.424,7.2,72c0,17.895,7.253,34.094,18.979,45.82L72,72V50.4z"/>
<path fill="#2040E0" d="M26.179,117.82C37.906,129.547,54.105,136.8,72,136.8s34.093-7.253,45.82-18.979L72,72L26.179,117.82z"/>
<path fill="#F8F8F8" d="M136.799,72c0-7.576-1.313-14.842-3.702-21.6H72V72l0,0l45.82,45.82
	C129.546,106.094,136.799,89.895,136.799,72z"/>
</svg>
